<mxfile host="app.diagrams.net" modified="2023-10-29T17:46:12.431Z" agent="Mozilla/5.0 (X11; Ubuntu; Linux x86_64; rv:109.0) Gecko/20100101 Firefox/119.0" etag="n8qTZRP5OydJ-ZWVoR0-" version="22.0.8" type="device">
  <diagram id="TULQF9bjct4fpU3lFA45" name="Page-1">
    <mxGraphModel dx="1434" dy="725" grid="1" gridSize="10" guides="1" tooltips="1" connect="1" arrows="1" fold="1" page="1" pageScale="1" pageWidth="850" pageHeight="1100" math="0" shadow="0">
      <root>
        <mxCell id="0" />
        <mxCell id="1" parent="0" />
        <mxCell id="muq6aAOhy4xrdzq_iw5O-37" value="" style="rounded=1;whiteSpace=wrap;html=1;strokeColor=#14213D;" vertex="1" parent="1">
          <mxGeometry x="270" y="40" width="730" height="570" as="geometry" />
        </mxCell>
        <mxCell id="muq6aAOhy4xrdzq_iw5O-10" value="" style="rounded=0;whiteSpace=wrap;html=1;strokeColor=#14213D;align=right;" vertex="1" parent="1">
          <mxGeometry x="300" y="268" width="200" height="92" as="geometry" />
        </mxCell>
        <mxCell id="muq6aAOhy4xrdzq_iw5O-28" style="edgeStyle=orthogonalEdgeStyle;rounded=0;orthogonalLoop=1;jettySize=auto;html=1;exitX=0;exitY=0.5;exitDx=0;exitDy=0;entryX=1;entryY=0.5;entryDx=0;entryDy=0;endArrow=none;endFill=0;strokeWidth=3;strokeColor=#14213D;" edge="1" parent="1" source="muq6aAOhy4xrdzq_iw5O-9" target="muq6aAOhy4xrdzq_iw5O-10">
          <mxGeometry relative="1" as="geometry" />
        </mxCell>
        <mxCell id="muq6aAOhy4xrdzq_iw5O-9" value="" style="rounded=0;whiteSpace=wrap;html=1;strokeColor=#14213D;fontStyle=1;align=right;fontColor=#14213D;" vertex="1" parent="1">
          <mxGeometry x="620" y="100" width="320" height="90" as="geometry" />
        </mxCell>
        <mxCell id="muq6aAOhy4xrdzq_iw5O-29" style="edgeStyle=orthogonalEdgeStyle;rounded=0;orthogonalLoop=1;jettySize=auto;html=1;exitX=0;exitY=0.5;exitDx=0;exitDy=0;entryX=1;entryY=0.5;entryDx=0;entryDy=0;endArrow=none;endFill=0;strokeColor=#14213D;strokeWidth=3;startArrow=classic;startFill=1;" edge="1" parent="1" source="muq6aAOhy4xrdzq_iw5O-8" target="muq6aAOhy4xrdzq_iw5O-10">
          <mxGeometry relative="1" as="geometry" />
        </mxCell>
        <mxCell id="muq6aAOhy4xrdzq_iw5O-8" value="" style="rounded=0;whiteSpace=wrap;html=1;strokeColor=#14213D;fontStyle=1;align=right;" vertex="1" parent="1">
          <mxGeometry x="620" y="269" width="320" height="90" as="geometry" />
        </mxCell>
        <mxCell id="muq6aAOhy4xrdzq_iw5O-36" style="edgeStyle=orthogonalEdgeStyle;rounded=0;orthogonalLoop=1;jettySize=auto;html=1;exitX=1;exitY=0.5;exitDx=0;exitDy=0;entryX=0;entryY=0.75;entryDx=0;entryDy=0;strokeWidth=3;strokeColor=#14213D;" edge="1" parent="1" source="ak4IssX-lSVvMalWM5Xv-2" target="muq6aAOhy4xrdzq_iw5O-10">
          <mxGeometry relative="1" as="geometry" />
        </mxCell>
        <mxCell id="ak4IssX-lSVvMalWM5Xv-2" value="Google Sheet" style="shape=image;html=1;verticalAlign=top;verticalLabelPosition=bottom;labelBackgroundColor=#ffffff;imageAspect=0;aspect=fixed;image=https://cdn1.iconfinder.com/data/icons/KDE_Crystal_Diamond_2.5_Classical_Mod/128x128/mimetypes/empty.png;fontColor=#14213D;fontFamily=Roboto;fontSource=https%3A%2F%2Ffonts.googleapis.com%2Fcss%3Ffamily%3DRoboto;fontStyle=1" parent="1" vertex="1">
          <mxGeometry x="46" y="462" width="88" height="88" as="geometry" />
        </mxCell>
        <mxCell id="ak4IssX-lSVvMalWM5Xv-5" value="&lt;font data-font-src=&quot;https://fonts.googleapis.com/css?family=Roboto&quot; face=&quot;Roboto&quot;&gt;&lt;b&gt;HTTP reverse proxy&lt;/b&gt;&lt;br&gt;&lt;/font&gt;" style="outlineConnect=0;dashed=0;verticalLabelPosition=middle;verticalAlign=middle;align=left;html=1;shape=mxgraph.aws3.classic_load_balancer;fillColor=#FCA311;gradientColor=none;fontFamily=Lucida Console;fontColor=#14213D;labelPosition=right;spacingLeft=5;" parent="1" vertex="1">
          <mxGeometry x="306" y="280" width="69" height="72" as="geometry" />
        </mxCell>
        <mxCell id="ak4IssX-lSVvMalWM5Xv-6" value="&lt;div align=&quot;left&quot;&gt;&lt;font data-font-src=&quot;https://fonts.googleapis.com/css?family=Roboto&quot;&gt;&lt;span&gt;Frontend Server&lt;/span&gt;&lt;br&gt;&lt;/font&gt;&lt;/div&gt;" style="sketch=0;aspect=fixed;pointerEvents=1;shadow=0;dashed=0;html=1;strokeColor=none;labelPosition=right;verticalLabelPosition=middle;verticalAlign=middle;align=left;fillColor=#FCA311;shape=mxgraph.mscae.enterprise.application_blank;fontFamily=Roboto;fontSource=https%3A%2F%2Ffonts.googleapis.com%2Fcss%3Ffamily%3DRoboto;fontStyle=1;spacingLeft=5;" parent="1" vertex="1">
          <mxGeometry x="631.6500000000001" y="120" width="58.14" height="50" as="geometry" />
        </mxCell>
        <mxCell id="muq6aAOhy4xrdzq_iw5O-4" value="&lt;font data-font-src=&quot;https://fonts.googleapis.com/css?family=Roboto&quot;&gt;Backend Server&lt;/font&gt;" style="sketch=0;outlineConnect=0;fontColor=#232F3E;gradientColor=none;fillColor=#FCA311;strokeColor=none;dashed=0;verticalLabelPosition=middle;verticalAlign=middle;align=left;html=1;fontSize=12;fontStyle=1;aspect=fixed;pointerEvents=1;shape=mxgraph.aws4.instance2;labelPosition=right;spacingLeft=5;fontFamily=Roboto;fontSource=https%3A%2F%2Ffonts.googleapis.com%2Fcss%3Ffamily%3DRoboto;" vertex="1" parent="1">
          <mxGeometry x="625.72" y="279" width="70" height="70" as="geometry" />
        </mxCell>
        <mxCell id="muq6aAOhy4xrdzq_iw5O-5" value="&lt;font color=&quot;#14213d&quot;&gt;&lt;b&gt;Redis instance&lt;/b&gt;&lt;/font&gt;" style="image;sketch=0;aspect=fixed;html=1;points=[];align=center;fontSize=12;image=img/lib/mscae/Cache_Redis_Product.svg;fontFamily=Roboto;fontSource=https%3A%2F%2Ffonts.googleapis.com%2Fcss%3Ffamily%3DRoboto;" vertex="1" parent="1">
          <mxGeometry x="739.28" y="482" width="81.43" height="68.4" as="geometry" />
        </mxCell>
        <mxCell id="muq6aAOhy4xrdzq_iw5O-15" value="" style="shape=image;verticalLabelPosition=bottom;labelBackgroundColor=#ffffff;verticalAlign=top;aspect=fixed;imageAspect=0;image=data:image/svg+xml,PHN2ZyB4bWxuczpjYz0iaHR0cDovL2NyZWF0aXZlY29tbW9ucy5vcmcvbnMjIiB4bWxuczpkYz0iaHR0cDovL3B1cmwub3JnL2RjL2VsZW1lbnRzLzEuMS8iIHhtbG5zOmlua3NjYXBlPSJodHRwOi8vd3d3Lmlua3NjYXBlLm9yZy9uYW1lc3BhY2VzL2lua3NjYXBlIiB4bWxuczpyZGY9Imh0dHA6Ly93d3cudzMub3JnLzE5OTkvMDIvMjItcmRmLXN5bnRheC1ucyMiIHhtbG5zOnNvZGlwb2RpPSJodHRwOi8vc29kaXBvZGkuc291cmNlZm9yZ2UubmV0L0RURC9zb2RpcG9kaS0wLmR0ZCIgeG1sbnM6c3ZnPSJodHRwOi8vd3d3LnczLm9yZy8yMDAwL3N2ZyIgeG1sbnM9Imh0dHA6Ly93d3cudzMub3JnLzIwMDAvc3ZnIiB4bWxuczp4bGluaz0iaHR0cDovL3d3dy53My5vcmcvMTk5OS94bGluayIgdmVyc2lvbj0iMS4xIiBpZD0ic3ZnMTk2OTUxIiBpbmtzY2FwZTp2ZXJzaW9uPSIwLjkyLjMgKDI0MDU1NDYsIDIwMTgtMDMtMTEpIiBzb2RpcG9kaTpkb2NuYW1lPSJweXRob25fdG9vbHNfYW5kX3Nkay5zdmciIHg9IjBweCIgeT0iMHB4IiB2aWV3Qm94PSIwIDAgNDggNDgiIHN0eWxlPSJlbmFibGUtYmFja2dyb3VuZDpuZXcgMCAwIDQ4IDQ4OyIgeG1sOnNwYWNlPSJwcmVzZXJ2ZSI+JiN4YTs8c29kaXBvZGk6bmFtZWR2aWV3IGJvcmRlcmNvbG9yPSIjNjY2NjY2IiBib3JkZXJvcGFjaXR5PSIxIiBmaXQtbWFyZ2luLWJvdHRvbT0iMCIgZml0LW1hcmdpbi1sZWZ0PSIwIiBmaXQtbWFyZ2luLXJpZ2h0PSIwIiBmaXQtbWFyZ2luLXRvcD0iMCIgZ3JpZHRvbGVyYW5jZT0iMTAiIGd1aWRldG9sZXJhbmNlPSIxMCIgaWQ9Im5hbWVkdmlldzE5Njk1MyIgaW5rc2NhcGU6Y3VycmVudC1sYXllcj0ic3ZnMTk2OTUxIiBpbmtzY2FwZTpjeD0iMzIuMDAwMDE1IiBpbmtzY2FwZTpjeT0iMzIuMDAwNTg2IiBpbmtzY2FwZTpwYWdlb3BhY2l0eT0iMCIgaW5rc2NhcGU6cGFnZXNoYWRvdz0iMiIgaW5rc2NhcGU6d2luZG93LWhlaWdodD0iMTAxNyIgaW5rc2NhcGU6d2luZG93LW1heGltaXplZD0iMSIgaW5rc2NhcGU6d2luZG93LXdpZHRoPSIxOTIwIiBpbmtzY2FwZTp3aW5kb3cteD0iLTgiIGlua3NjYXBlOndpbmRvdy15PSItOCIgaW5rc2NhcGU6em9vbT0iMTAuMjcyOTE3IiBvYmplY3R0b2xlcmFuY2U9IjEwIiBwYWdlY29sb3I9IiNmZmZmZmYiIHNob3dncmlkPSJmYWxzZSI+JiN4YTsJPC9zb2RpcG9kaTpuYW1lZHZpZXc+JiN4YTs8ZyBpZD0iZzE5Njk0OSIgdHJhbnNmb3JtPSJ0cmFuc2xhdGUoLTcuNjUsLTcuNjQ5MjgwNikiPiYjeGE7CTx0aXRsZSBpZD0idGl0bGUxOTY5MDUiPlBhZ2UtMTwvdGl0bGU+JiN4YTsJPGcgaWQ9Imdyb3VwMTE3Ny0xIiB0cmFuc2Zvcm09InRyYW5zbGF0ZSg3LjY1LC03LjYxMzQyKSI+JiN4YTsJCTx0aXRsZSBpZD0idGl0bGUxOTY5MDciPlB5dGhvbiBUb29scyBhbmQgU0RLPC90aXRsZT4mI3hhOwkJPGcgaWQ9Imdyb3VwMTE3OC0yIj4mI3hhOwkJCTx0aXRsZSBpZD0idGl0bGUxOTY5MDkiPlNoZWV0LjExNzg8L3RpdGxlPiYjeGE7CQkJPGcgaWQ9Imdyb3VwMTE3OS0zIiB0cmFuc2Zvcm09InRyYW5zbGF0ZSgwLC0xMi4zMTQ3KSI+JiN4YTsJCQkJPHRpdGxlIGlkPSJ0aXRsZTE5NjkxMSI+U2hlZXQuMTE3OTwvdGl0bGU+JiN4YTsJCQkJPGcgaWQ9InNoYXBlMTE4MC00Ij4mI3hhOwkJCQkJPHRpdGxlIGlkPSJ0aXRsZTE5NjkxMyI+U2hlZXQuMTE4MDwvdGl0bGU+JiN4YTsJCQkJCTxwYXRoIGlkPSJwYXRoMTk2OTE1IiBpbmtzY2FwZTpjb25uZWN0b3ItY3VydmF0dXJlPSIwIiBzdHlsZT0iZmlsbDojMzc3MkE0OyIgZD0iTTAsNTEuMTdjMC4wMi0wLjA2LDAuMDQtMC4xMywwLjA1LTAuMiAgICAgICBjMC4wNC0wLjcsMC4wNC0xLjQsMC4xMS0yLjFjMC4yNC0yLjI2LDAuNzYtNC40NCwyLjE4LTYuMjhjMS4xLTEuNDQsMi41NC0yLjMsNC4zMy0yLjU0YzAuMjUtMC4wMywwLjUxLTAuMDQsMC43Ni0wLjA0ICAgICAgIGM1LjM5LDAsMTAuNzksMCwxNi4xOCwwYzAuMzEsMCwwLjMxLDAsMC4zMi0wLjMyYzAtMC4zNy0wLjAyLTAuNzUsMC0xLjEyYzAuMDEtMC4yMy0wLjA3LTAuMjktMC4yOS0wLjI5ICAgICAgIGMtMi45OCwwLjAxLTUuOTUsMC4wMS04LjkzLDAuMDFjLTAuNywwLTEuMzktMC4wMS0yLjA5LDBjLTAuMTksMC0wLjI2LTAuMDUtMC4yNS0wLjI1YzAtMS44My0wLjAxLTMuNjcsMC01LjUgICAgICAgYzAuMDEtMC44MiwwLjQtMS41MSwwLjkzLTIuMTFjMC43NC0wLjg0LDEuNjktMS4zNiwyLjcxLTEuNzVjMS4yNi0wLjQ4LDIuNTctMC43MywzLjg5LTAuODljMS44My0wLjIzLDMuNjYtMC4yNSw1LjQ5LTAuMTcgICAgICAgYzEuOTcsMC4wOCwzLjkyLDAuMzUsNS43OCwxLjA3YzEuMjYsMC40OSwyLjQsMS4xNiwzLjIzLDIuMjZjMC42OSwwLjkxLDEuMDEsMS45MiwwLjk1LDMuMDhjLTAuMDUsMC45My0wLjAyLDEuODctMC4wMSwyLjgxICAgICAgIGMwLDEuNzMsMC4wMSwzLjQ2LDAuMDEsNS4xOWMwLDEuMDIsMC4wMiwyLjA0LTAuMDUsMy4wNmMtMC4xNCwyLjQtMS4yOSw0LjExLTMuNTEsNS4wNGMtMS4wMSwwLjQyLTIuMDYsMC42MS0zLjE0LDAuNjEgICAgICAgYy0zLjgyLDAtNy42NS0wLjAxLTExLjQ3LDBjLTEuMjIsMC0yLjM5LDAuMjctMy40NSwwLjkxYy0xLjQsMC44NS0yLjIsMi4xNS0yLjY1LDMuN2MtMC4yMiwwLjc3LTAuMzEsMS41Ny0wLjMyLDIuMzcgICAgICAgYzAsMS43MywwLDMuNDYsMCw1LjE5YzAsMC4zNSwwLDAuMzUtMC4zNCwwLjM1Yy0xLjI1LDAtMi40OSwwLjA0LTMuNzQsMC4wMWMtMS4yNy0wLjA0LTIuMzctMC41NC0zLjMyLTEuMzcgICAgICAgYy0xLjEyLTAuOTYtMS44Mi0yLjE5LTIuMzEtMy41NmMtMC40Ni0xLjI1LTAuNzMtMi41NC0wLjg0LTMuODZjLTAuMDgtMC44NC0wLjExLTEuNjgtMC4xNi0yLjUyICAgICAgIEMwLjA0LDUxLjg3LDAuMDIsNTEuNzgsMCw1MS42OUMwLDUxLjUyLDAsNTEuMzUsMCw1MS4xN3oiLz4mI3hhOwkJCQk8L2c+JiN4YTsJCQkJPGcgaWQ9InNoYXBlMTE4MS02IiB0cmFuc2Zvcm09InRyYW5zbGF0ZSgxNS4yMDMzLC0yNy44MzIpIj4mI3hhOwkJCQkJPHRpdGxlIGlkPSJ0aXRsZTE5NjkxOCI+U2hlZXQuMTE4MTwvdGl0bGU+JiN4YTsJCQkJCTxwYXRoIGlkPSJwYXRoMTk2OTIwIiBpbmtzY2FwZTpjb25uZWN0b3ItY3VydmF0dXJlPSIwIiBkPSJNMCw2MS4xNWMwLDEuMTksMC45NCwyLjE1LDIuMTEsMi4xNWMxLjE1LDAsMi4xMS0wLjk3LDIuMTEtMi4xMyAgICAgICBjMC0xLjE5LTAuOTUtMi4xNi0yLjExLTIuMTVDMC45Myw1OS4wMywwLDU5Ljk3LDAsNjEuMTV6Ii8+JiN4YTsJCQkJPC9nPiYjeGE7CQkJCTxnIGlkPSJzaGFwZTExODItOCIgdHJhbnNmb3JtPSJ0cmFuc2xhdGUoMTUuMjAzMywtMjcuODMyKSI+JiN4YTsJCQkJCTx0aXRsZSBpZD0idGl0bGUxOTY5MjMiPlNoZWV0LjExODI8L3RpdGxlPiYjeGE7CQkJCQk8cGF0aCBpZD0icGF0aDE5NjkyNSIgaW5rc2NhcGU6Y29ubmVjdG9yLWN1cnZhdHVyZT0iMCIgc3R5bGU9ImZpbGw6I0ZGRkZGRjsiIGQ9Ik0wLDYxLjE1YzAtMS4xOCwwLjkzLTIuMTIsMi4xMS0yLjEzICAgICAgIGMxLjE2LTAuMDEsMi4xMSwwLjk2LDIuMTEsMi4xNWMwLDEuMTYtMC45NiwyLjEzLTIuMTEsMi4xM0MwLjk0LDYzLjMsMCw2Mi4zNCwwLDYxLjE1eiIvPiYjeGE7CQkJCTwvZz4mI3hhOwkJCTwvZz4mI3hhOwkJCTxnIGlkPSJncm91cDExODMtMTAiIHRyYW5zZm9ybT0idHJhbnNsYXRlKDEyLjU5NCkiPiYjeGE7CQkJCTx0aXRsZSBpZD0idGl0bGUxOTY5MjkiPlNoZWV0LjExODM8L3RpdGxlPiYjeGE7CQkJCTxnIGlkPSJzaGFwZTExODQtMTEiPiYjeGE7CQkJCQk8dGl0bGUgaWQ9InRpdGxlMTk2OTMxIj5TaGVldC4xMTg0PC90aXRsZT4mI3hhOwkJCQkJPHBhdGggaWQ9InBhdGgxOTY5MzMiIGlua3NjYXBlOmNvbm5lY3Rvci1jdXJ2YXR1cmU9IjAiIHN0eWxlPSJmaWxsOiNGRkRBNEI7IiBkPSJNMzUuNDEsMzkuNjZjLTAuMDIsMC4wNy0wLjA1LDAuMTQtMC4wNSwwLjIxICAgICAgIGMtMC4wNCwwLjctMC4wNSwxLjQtMC4xMiwyLjA5Yy0wLjIzLDIuMjctMC43NSw0LjQ1LTIuMTcsNi4yOWMtMS4xLDEuNDQtMi41NCwyLjMtNC4zNCwyLjUzYy0wLjI1LDAuMDQtMC41LDAuMDUtMC43NiwwLjA1ICAgICAgIGMtNS4zOSwwLTEwLjc4LDAtMTYuMTcsMGMtMC4zMiwwLTAuMzIsMC0wLjMyLDAuMzJjMCwwLjM3LDAuMDEsMC43NSwwLDEuMTJjLTAuMDIsMC4yMywwLjA3LDAuMjksMC4yOCwwLjI5ICAgICAgIGMyLjk4LTAuMDEsNS45Ni0wLjAxLDguOTQtMC4wMWMwLjY5LDAsMS4zOSwwLjAxLDIuMDksMGMwLjE5LDAsMC4yNSwwLjA1LDAuMjUsMC4yNWMtMC4wMSwxLjgzLDAuMDEsMy42Ny0wLjAxLDUuNSAgICAgICBjLTAuMDEsMC44Mi0wLjM5LDEuNTEtMC45MywyLjExYy0wLjc0LDAuODMtMS42OCwxLjM2LTIuNywxLjc1Yy0xLjI2LDAuNDgtMi41NywwLjcyLTMuOSwwLjg5Yy0xLjgyLDAuMjMtMy42NSwwLjI1LTUuNDgsMC4xNyAgICAgICBjLTEuOTctMC4wOS0zLjkyLTAuMzUtNS43OC0xLjA3Yy0xLjI2LTAuNDktMi40LTEuMTYtMy4yNC0yLjI3Yy0wLjY4LTAuOS0xLTEuOTItMC45NC0zLjA3YzAuMDUtMC45MywwLjAxLTEuODcsMC4wMS0yLjgxICAgICAgIGMwLTEuNzMtMC4wMS0zLjQ2LTAuMDEtNS4xOWMwLTEuMDItMC4wMi0yLjA0LDAuMDQtMy4wNmMwLjE0LTIuNCwxLjI5LTQuMTEsMy41Mi01LjA0YzEtMC40MywyLjA2LTAuNjEsMy4xNC0wLjYxICAgICAgIGMzLjgyLDAsNy42NCwwLjAxLDExLjQ2LDBjMS4yMywwLDIuNC0wLjI3LDMuNDYtMC45MWMxLjQtMC44NSwyLjItMi4xNSwyLjY0LTMuN2MwLjIyLTAuNzcsMC4zMi0xLjU3LDAuMzItMi4zNyAgICAgICBjMC4wMS0xLjczLDAtMy40NiwwLTUuMmMwLTAuMzQsMC0wLjM0LDAuMzUtMC4zNGMxLjI0LDAsMi40OS0wLjA0LDMuNzMtMC4wMWMxLjI3LDAuMDQsMi4zNywwLjU0LDMuMzMsMS4zNyAgICAgICBjMS4xMSwwLjk2LDEuODEsMi4xOSwyLjMxLDMuNTZjMC40NSwxLjI1LDAuNzIsMi41NCwwLjg0LDMuODZjMC4wNywwLjg0LDAuMTEsMS42OCwwLjE2LDIuNTFjMCwwLjEsMC4wMywwLjE5LDAuMDUsMC4yOCAgICAgICBDMzUuNDEsMzkuMzIsMzUuNDEsMzkuNDksMzUuNDEsMzkuNjZ6Ii8+JiN4YTsJCQkJPC9nPiYjeGE7CQkJCTxnIGlkPSJzaGFwZTExODUtMTMiIHRyYW5zZm9ybT0idHJhbnNsYXRlKDE1Ljk4MTMsLTMuOTEyKSI+JiN4YTsJCQkJCTx0aXRsZSBpZD0idGl0bGUxOTY5MzYiPlNoZWV0LjExODU8L3RpdGxlPiYjeGE7CQkJCQk8cGF0aCBpZD0icGF0aDE5NjkzOCIgaW5rc2NhcGU6Y29ubmVjdG9yLWN1cnZhdHVyZT0iMCIgZD0iTTQuMjIsNjEuMTZjMC0xLjE5LTAuOTQtMi4xNS0yLjExLTIuMTVDMC45Niw1OS4wMiwwLDU5Ljk4LDAsNjEuMTQgICAgICAgYzAsMS4xOSwwLjk1LDIuMTYsMi4xMiwyLjE1UzQuMjIsNjIuMzQsNC4yMiw2MS4xNnoiLz4mI3hhOwkJCQk8L2c+JiN4YTsJCQkJPGcgaWQ9InNoYXBlMTE4Ni0xNSIgdHJhbnNmb3JtPSJ0cmFuc2xhdGUoMTUuOTgwNywtMy45MTIpIj4mI3hhOwkJCQkJPHRpdGxlIGlkPSJ0aXRsZTE5Njk0MSI+U2hlZXQuMTE4NjwvdGl0bGU+JiN4YTsJCQkJCTxwYXRoIGlkPSJwYXRoMTk2OTQzIiBpbmtzY2FwZTpjb25uZWN0b3ItY3VydmF0dXJlPSIwIiBzdHlsZT0iZmlsbDojRkZGRkZGOyIgZD0iTTQuMjIsNjEuMTZjMCwxLjE4LTAuOTMsMi4xMi0yLjEsMi4xMyAgICAgICBDMC45NSw2My4zLDAsNjIuMzMsMCw2MS4xNGMwLTEuMTYsMC45Ni0yLjEyLDIuMTEtMi4xM0MzLjI4LDU5LjAxLDQuMjIsNTkuOTcsNC4yMiw2MS4xNnoiLz4mI3hhOwkJCQk8L2c+JiN4YTsJCQk8L2c+JiN4YTsJCTwvZz4mI3hhOwk8L2c+JiN4YTs8L2c+JiN4YTs8L3N2Zz4=;" vertex="1" parent="1">
          <mxGeometry x="840" y="288" width="48" height="48" as="geometry" />
        </mxCell>
        <mxCell id="muq6aAOhy4xrdzq_iw5O-23" value="" style="shape=image;html=1;verticalAlign=top;verticalLabelPosition=bottom;labelBackgroundColor=#ffffff;imageAspect=0;aspect=fixed;image=https://cdn4.iconfinder.com/data/icons/file-extension-names-vol-5-1/512/48-128.png;shadow=0;fontColor=#EA526F;strokeColor=#FCEADE;strokeWidth=4;fillColor=#FF8A5B;" vertex="1" parent="1">
          <mxGeometry x="870" y="115" width="60" height="60" as="geometry" />
        </mxCell>
        <mxCell id="muq6aAOhy4xrdzq_iw5O-24" value="" style="shape=image;html=1;verticalAlign=top;verticalLabelPosition=bottom;labelBackgroundColor=#ffffff;imageAspect=0;aspect=fixed;image=https://cdn4.iconfinder.com/data/icons/file-extension-names-vol-5-1/512/38-128.png;shadow=0;fontColor=#FF8A5B;strokeColor=#FCEADE;strokeWidth=4;fillColor=#FF8A5B;" vertex="1" parent="1">
          <mxGeometry x="808" y="115" width="60" height="60" as="geometry" />
        </mxCell>
        <mxCell id="muq6aAOhy4xrdzq_iw5O-25" value="" style="group" vertex="1" connectable="0" parent="1">
          <mxGeometry x="20" y="170" width="160" height="118" as="geometry" />
        </mxCell>
        <mxCell id="ak4IssX-lSVvMalWM5Xv-4" value="" style="sketch=0;pointerEvents=1;shadow=0;dashed=0;html=1;strokeColor=none;fillColor=#FCA311;labelPosition=center;verticalLabelPosition=bottom;verticalAlign=top;align=center;outlineConnect=0;shape=mxgraph.veeam2.laptop;" parent="muq6aAOhy4xrdzq_iw5O-25" vertex="1">
          <mxGeometry width="140" height="98" as="geometry" />
        </mxCell>
        <mxCell id="muq6aAOhy4xrdzq_iw5O-13" value="" style="sketch=0;pointerEvents=1;shadow=0;dashed=0;html=1;strokeColor=none;fillColor=#FCA311;labelPosition=center;verticalLabelPosition=bottom;verticalAlign=top;align=center;outlineConnect=0;shape=mxgraph.veeam2.laptop;" vertex="1" parent="muq6aAOhy4xrdzq_iw5O-25">
          <mxGeometry x="10" y="10" width="140" height="98" as="geometry" />
        </mxCell>
        <mxCell id="muq6aAOhy4xrdzq_iw5O-14" value="&lt;font data-font-src=&quot;https://fonts.googleapis.com/css?family=Roboto&quot; face=&quot;Roboto&quot;&gt;&lt;b&gt;Clients&lt;/b&gt;&lt;/font&gt;" style="sketch=0;pointerEvents=1;shadow=0;dashed=0;html=1;strokeColor=none;fillColor=#FCA311;labelPosition=center;verticalLabelPosition=bottom;verticalAlign=top;align=center;outlineConnect=0;shape=mxgraph.veeam2.laptop;fontColor=#14213D;" vertex="1" parent="muq6aAOhy4xrdzq_iw5O-25">
          <mxGeometry x="20" y="20" width="140" height="98" as="geometry" />
        </mxCell>
        <mxCell id="muq6aAOhy4xrdzq_iw5O-26" style="edgeStyle=orthogonalEdgeStyle;rounded=0;orthogonalLoop=1;jettySize=auto;html=1;entryX=0;entryY=0.25;entryDx=0;entryDy=0;endArrow=none;endFill=0;startArrow=classic;startFill=1;strokeColor=#14213D;strokeWidth=3;" edge="1" parent="1" source="muq6aAOhy4xrdzq_iw5O-14" target="muq6aAOhy4xrdzq_iw5O-10">
          <mxGeometry relative="1" as="geometry" />
        </mxCell>
        <mxCell id="muq6aAOhy4xrdzq_iw5O-30" style="edgeStyle=orthogonalEdgeStyle;rounded=0;orthogonalLoop=1;jettySize=auto;html=1;exitX=0.5;exitY=1;exitDx=0;exitDy=0;entryX=0.5;entryY=-0.073;entryDx=0;entryDy=0;entryPerimeter=0;strokeWidth=3;startArrow=classic;startFill=1;strokeColor=#14213D;" edge="1" parent="1" source="muq6aAOhy4xrdzq_iw5O-8" target="muq6aAOhy4xrdzq_iw5O-5">
          <mxGeometry relative="1" as="geometry" />
        </mxCell>
      </root>
    </mxGraphModel>
  </diagram>
</mxfile>
